<svg width="38" height="32" viewBox="0 0 38 32" fill="none" xmlns="http://www.w3.org/2000/svg">
<path d="M0 0C8.85867 2.29669 18.1516 2.3371 27.0299 0.11752L27.5 0C30.467 1.31865 33.6776 2 36.9244 2H38V32L34.6254 31.3974C27.6169 30.1459 20.4258 30.351 13.5 32H0V0Z" fill="#F0F0F0"/>
<path fill-rule="evenodd" clip-rule="evenodd" d="M13.5 32C20.4258 30.351 27.6169 30.1459 34.6254 31.3974L38 32V2H36.9244C33.6776 2 30.467 1.31865 27.5 0L27.0299 0.11752C18.8174 2.17064 10.2502 2.29004 2 0.478642C1.33113 0.331785 0.664344 0.172237 0 0V32H13.5ZM2 30H13.2674C20.3893 28.3374 27.776 28.1426 34.977 29.4285L36 29.6112V3.98304C33.0229 3.87378 30.0879 3.23752 27.3319 2.10326C19.0176 4.15249 10.3578 4.29198 2 2.52455V30Z" fill="#162945"/>
<path fill-rule="evenodd" clip-rule="evenodd" d="M4.2528 12.7393C4.15868 12.215 4.07679 11.6766 4.00772 11.124L5.99228 10.876C6.05705 11.3942 6.13364 11.8974 6.22133 12.3859L4.2528 12.7393ZM6.22964 19.0022C5.77147 18.0568 5.36719 17.033 5.02482 15.9303L6.93487 15.3372C7.24899 16.3489 7.61704 17.279 8.02944 18.13L6.22964 19.0022ZM10.2199 24.3492C9.40599 23.6392 8.64269 22.8113 7.94607 21.8648L9.55679 20.6793C10.1698 21.5122 10.8346 22.2314 11.5346 22.842L10.2199 24.3492ZM27.2328 23.6805C26.838 24.1056 26.4204 24.4975 25.9832 24.8553L24.7165 23.3076C25.0828 23.0078 25.434 22.6784 25.7672 22.3195L27.2328 23.6805ZM16.2828 27.3496C15.1806 27.1419 14.0905 26.7766 13.0406 26.2507L13.9362 24.4625C14.8216 24.9059 15.735 25.2112 16.6531 25.3841L16.2828 27.3496ZM23.0464 26.6308C21.9801 27.0811 20.8595 27.3695 19.717 27.4904L19.5065 25.5015C20.4537 25.4013 21.383 25.1622 22.2683 24.7883L23.0464 26.6308Z" fill="#162945"/>
<path fill-rule="evenodd" clip-rule="evenodd" d="M30.7929 22.7071L26.7929 18.7071L28.2071 17.2929L32.2071 21.2929L30.7929 22.7071Z" fill="#BD0878"/>
<path fill-rule="evenodd" clip-rule="evenodd" d="M27.0128 21.3353L30.2228 17.3707L31.7772 18.6293L28.5671 22.5938L27.0128 21.3353Z" fill="#BD0878"/>
<path d="M19 5L23.3301 15.5H14.6699L19 5Z" fill="#057F9C"/>
<path d="M24 6L27.4641 15H20.5359L24 6Z" fill="#057F9C"/>
</svg>
