<svg width="120" height="32" viewBox="0 0 120 32" fill="none" xmlns="http://www.w3.org/2000/svg">
<path d="M62.2617 9.42188C61.9818 9.83203 61.6693 10.3236 61.3242 10.8965C60.9792 11.4694 60.6113 12.1107 60.2207 12.8203C59.8887 13.4128 59.5599 14.0443 59.2344 14.7148C58.9154 15.3789 58.6094 16.0397 58.3164 16.6973C58.0234 17.3483 57.7533 17.9766 57.5059 18.582C57.2585 19.181 57.0436 19.7116 56.8613 20.1738C56.679 20.6296 56.5358 20.9974 56.4316 21.2773C56.3275 21.5508 56.2754 21.6908 56.2754 21.6973C56.2103 21.86 56.0931 21.9414 55.9238 21.9414C55.8392 21.9414 55.7643 21.9154 55.6992 21.8633C55.6341 21.8047 55.5918 21.7331 55.5723 21.6484C55.5723 21.6419 55.5397 21.5052 55.4746 21.2383C55.416 20.9648 55.3346 20.6035 55.2305 20.1543C55.1263 19.6986 55.0059 19.1777 54.8691 18.5918C54.7389 17.9993 54.599 17.3841 54.4492 16.7461C54.306 16.1016 54.1595 15.4505 54.0098 14.793C53.86 14.1354 53.7201 13.5104 53.5898 12.918C53.1536 14.1484 52.7142 15.2389 52.2715 16.1895C51.8353 17.1335 51.3861 17.957 50.9238 18.6602C50.4616 19.3568 49.9831 19.9427 49.4883 20.418C49 20.8932 48.4857 21.2773 47.9453 21.5703C47.4115 21.8568 46.8483 22.0618 46.2559 22.1855C45.6699 22.3092 45.0482 22.3711 44.3906 22.3711C44.0521 22.3711 43.6908 22.332 43.3066 22.2539C42.9225 22.1823 42.5417 22.0684 42.1641 21.9121C41.7865 21.7559 41.4251 21.5605 41.0801 21.3262C40.735 21.0918 40.429 20.8151 40.1621 20.4961C39.8952 20.1706 39.6836 19.806 39.5273 19.4023C39.3711 18.9922 39.293 18.5365 39.293 18.0352C39.293 17.5078 39.4036 17.026 39.625 16.5898C39.8464 16.1471 40.1458 15.7695 40.5234 15.457C40.901 15.138 41.3372 14.8906 41.832 14.7148C42.3333 14.5391 42.8607 14.4512 43.4141 14.4512C43.8177 14.4512 44.179 14.487 44.498 14.5586C44.8236 14.6237 45.11 14.7083 45.3574 14.8125C45.6048 14.9167 45.8164 15.0306 45.9922 15.1543C46.168 15.278 46.3145 15.3919 46.4316 15.4961C46.5488 15.6003 46.6335 15.6914 46.6855 15.7695C46.7376 15.8411 46.7669 15.877 46.7734 15.877C46.8125 15.9486 46.832 16.0169 46.832 16.082C46.832 16.1732 46.7962 16.2578 46.7246 16.3359C46.6595 16.4141 46.5716 16.4531 46.4609 16.4531C46.3307 16.4531 46.2266 16.3978 46.1484 16.2871C46.1419 16.2806 46.0898 16.222 45.9922 16.1113C45.8945 15.9941 45.735 15.8672 45.5137 15.7305C45.2923 15.5938 45.0059 15.4701 44.6543 15.3594C44.3092 15.2487 43.8861 15.1934 43.3848 15.1934C42.929 15.1934 42.4961 15.265 42.0859 15.4082C41.6823 15.5449 41.3275 15.7402 41.0215 15.9941C40.722 16.248 40.4811 16.5508 40.2988 16.9023C40.123 17.2474 40.0352 17.6283 40.0352 18.0449C40.0352 18.4551 40.1035 18.8294 40.2402 19.168C40.377 19.5065 40.5592 19.8092 40.7871 20.0762C41.015 20.3431 41.2786 20.5742 41.5781 20.7695C41.8776 20.9648 42.1901 21.1276 42.5156 21.2578C42.8411 21.3815 43.1667 21.4759 43.4922 21.541C43.8242 21.5996 44.1367 21.6289 44.4297 21.6289C44.9245 21.6289 45.4062 21.5931 45.875 21.5215C46.3503 21.4434 46.8158 21.3001 47.2715 21.0918C47.7337 20.8835 48.1862 20.597 48.6289 20.2324C49.0716 19.8678 49.5111 19.3926 49.9473 18.8066C50.3835 18.2207 50.8132 17.5143 51.2363 16.6875C51.666 15.8607 52.0957 14.8841 52.5254 13.7578C52.6556 13.4193 52.7826 13.0547 52.9062 12.6641C53.0299 12.2734 53.1569 11.8796 53.2871 11.4824C53.1764 10.9095 53.0951 10.4212 53.043 10.0176C52.9974 9.61393 52.9746 9.27865 52.9746 9.01172C52.9746 8.72526 52.9974 8.4974 53.043 8.32812C53.0885 8.15885 53.1471 8.0319 53.2188 7.94727C53.2904 7.85612 53.3685 7.80078 53.4531 7.78125C53.5378 7.75521 53.6191 7.74219 53.6973 7.74219C53.7624 7.74219 53.834 7.75521 53.9121 7.78125C53.9967 7.80729 54.0716 7.86589 54.1367 7.95703C54.2083 8.04167 54.2669 8.16862 54.3125 8.33789C54.3581 8.50716 54.3809 8.73503 54.3809 9.02148C54.3809 9.33398 54.3516 9.69531 54.293 10.1055C54.2344 10.5156 54.1465 10.9681 54.0293 11.4629C54.1139 11.86 54.2116 12.3027 54.3223 12.791C54.4329 13.2793 54.5469 13.7871 54.6641 14.3145C54.7812 14.8353 54.9017 15.3691 55.0254 15.916C55.1491 16.4629 55.2695 16.9967 55.3867 17.5176C55.5039 18.0384 55.6146 18.5365 55.7188 19.0117C55.8294 19.487 55.9303 19.9167 56.0215 20.3008C56.1973 19.8581 56.4121 19.3242 56.666 18.6992C56.9199 18.0677 57.2031 17.4004 57.5156 16.6973C57.8281 15.9876 58.1569 15.2682 58.502 14.5391C58.8535 13.8034 59.2116 13.11 59.5762 12.459C60.0905 11.5345 60.5625 10.7435 60.9922 10.0859C61.4219 9.42188 61.793 8.875 62.1055 8.44531C62.418 8.01562 62.6621 7.69987 62.8379 7.49805C63.0202 7.28971 63.1178 7.17578 63.1309 7.15625C63.2025 7.08464 63.2904 7.04883 63.3945 7.04883C63.5052 7.04883 63.5931 7.08789 63.6582 7.16602C63.7298 7.23763 63.7656 7.32227 63.7656 7.41992C63.7656 7.46549 63.7559 7.51107 63.7363 7.55664C63.7363 7.56315 63.6973 7.66081 63.6191 7.84961C63.5475 8.0319 63.4531 8.28581 63.3359 8.61133C63.2253 8.93034 63.1016 9.30794 62.9648 9.74414C62.8281 10.1738 62.6947 10.6393 62.5645 11.1406C62.4342 11.6354 62.3171 12.1562 62.2129 12.7031C62.1152 13.2435 62.0436 13.7839 61.998 14.3242C61.9785 14.5716 61.9622 14.832 61.9492 15.1055C61.9362 15.3724 61.9297 15.6426 61.9297 15.916C61.9297 16.3457 61.9492 16.7786 61.9883 17.2148C62.0273 17.651 62.0924 18.071 62.1836 18.4746C62.2747 18.8783 62.3984 19.2591 62.5547 19.6172C62.7109 19.9688 62.903 20.278 63.1309 20.5449C63.3587 20.8118 63.6289 21.0267 63.9414 21.1895C64.2604 21.3522 64.6283 21.4401 65.0449 21.4531C65.1491 21.4596 65.2305 21.5052 65.2891 21.5898C65.3542 21.668 65.3867 21.7526 65.3867 21.8438C65.3867 21.9349 65.3509 22.0163 65.2793 22.0879C65.2077 22.1595 65.123 22.1953 65.0254 22.1953C64.9212 22.1953 64.8171 22.1855 64.7129 22.166C64.2441 22.1009 63.8307 21.9674 63.4727 21.7656C63.1146 21.5573 62.8053 21.3034 62.5449 21.0039C62.2845 20.6979 62.0664 20.3529 61.8906 19.9688C61.7214 19.5781 61.5846 19.1615 61.4805 18.7188C61.3763 18.276 61.3014 17.8171 61.2559 17.3418C61.2168 16.86 61.1973 16.375 61.1973 15.8867C61.1973 15.3073 61.2266 14.7279 61.2852 14.1484C61.3438 13.569 61.4219 13.0059 61.5195 12.459C61.6172 11.9056 61.7311 11.3717 61.8613 10.8574C61.9915 10.3431 62.125 9.86458 62.2617 9.42188ZM73.502 19.2754C73.4759 19.3275 73.4206 19.4382 73.3359 19.6074C73.2578 19.7702 73.1536 19.959 73.0234 20.1738C72.8997 20.3887 72.7533 20.6133 72.584 20.8477C72.4147 21.082 72.2259 21.2969 72.0176 21.4922C71.8092 21.6875 71.5846 21.8503 71.3438 21.9805C71.1029 22.1042 70.849 22.166 70.582 22.166C70.2044 22.166 69.8854 22.0456 69.625 21.8047C69.3711 21.5638 69.1855 21.2611 69.0684 20.8965C68.847 21.2676 68.5833 21.5638 68.2773 21.7852C67.9714 22 67.6654 22.1074 67.3594 22.1074C67.1185 22.1074 66.9004 22.0651 66.7051 21.9805C66.5098 21.8893 66.3438 21.7656 66.207 21.6094C66.0703 21.4466 65.9629 21.2578 65.8848 21.043C65.8132 20.8281 65.7773 20.5938 65.7773 20.3398C65.7773 19.832 65.862 19.3861 66.0312 19.002C66.207 18.6113 66.4284 18.2858 66.6953 18.0254C66.9622 17.765 67.2552 17.5697 67.5742 17.4395C67.8997 17.3092 68.2122 17.2441 68.5117 17.2441C68.7135 17.2441 68.8991 17.2734 69.0684 17.332C69.2376 17.3841 69.3809 17.4427 69.498 17.5078C69.6217 17.5729 69.7161 17.6348 69.7812 17.6934C69.8464 17.7454 69.8822 17.7747 69.8887 17.7812C69.9603 17.8659 69.9961 17.9538 69.9961 18.0449C69.9961 18.1426 69.9603 18.2305 69.8887 18.3086C69.8171 18.3802 69.7324 18.416 69.6348 18.416C69.5306 18.416 69.4427 18.3802 69.3711 18.3086C69.3581 18.2956 69.3288 18.2728 69.2832 18.2402C69.2376 18.2012 69.1758 18.1621 69.0977 18.123C69.0195 18.084 68.9251 18.0514 68.8145 18.0254C68.7103 17.9928 68.5898 17.9766 68.4531 17.9766C68.2513 17.9766 68.0365 18.0221 67.8086 18.1133C67.5807 18.2044 67.3724 18.3477 67.1836 18.543C66.9948 18.7318 66.8353 18.9727 66.7051 19.2656C66.5814 19.5521 66.5195 19.8939 66.5195 20.291C66.5195 20.4147 66.5326 20.5417 66.5586 20.6719C66.5846 20.7956 66.6302 20.9095 66.6953 21.0137C66.7604 21.1178 66.8483 21.2025 66.959 21.2676C67.0697 21.3327 67.2064 21.3652 67.3691 21.3652C67.4863 21.3652 67.6198 21.3262 67.7695 21.248C67.9258 21.1699 68.0723 21.0495 68.209 20.8867C68.3522 20.724 68.4792 20.5189 68.5898 20.2715C68.707 20.0241 68.7884 19.7311 68.834 19.3926C68.847 19.3014 68.8893 19.2266 68.9609 19.168C69.0326 19.1029 69.1172 19.0703 69.2148 19.0703C69.306 19.0703 69.3841 19.1061 69.4492 19.1777C69.5208 19.2493 69.5599 19.3307 69.5664 19.4219C69.5729 19.5456 69.5859 19.7214 69.6055 19.9492C69.625 20.1706 69.6673 20.3919 69.7324 20.6133C69.804 20.8346 69.9082 21.0267 70.0449 21.1895C70.1816 21.3522 70.3704 21.4336 70.6113 21.4336C70.7676 21.4336 70.9206 21.3913 71.0703 21.3066C71.2266 21.222 71.3763 21.1113 71.5195 20.9746C71.6693 20.8314 71.8092 20.6719 71.9395 20.4961C72.0762 20.3138 72.1999 20.1315 72.3105 19.9492C72.4212 19.7669 72.5189 19.5911 72.6035 19.4219C72.6882 19.2526 72.7598 19.1061 72.8184 18.9824C72.8509 18.9108 72.8965 18.8555 72.9551 18.8164C73.0202 18.7773 73.0885 18.7578 73.1602 18.7578C73.2708 18.7578 73.3587 18.8001 73.4238 18.8848C73.4954 18.9629 73.5312 19.0475 73.5312 19.1387C73.5312 19.1842 73.5215 19.2298 73.502 19.2754ZM77.8379 19.2754C77.8379 19.8743 77.7305 20.3854 77.5156 20.8086C77.3008 21.2318 77.0371 21.554 76.7246 21.7754H76.7637C77.1478 21.7754 77.4961 21.6908 77.8086 21.5215C78.1276 21.3457 78.4141 21.1243 78.668 20.8574C78.9219 20.584 79.1497 20.2812 79.3516 19.9492C79.5534 19.6172 79.7324 19.2949 79.8887 18.9824C79.9212 18.9108 79.9668 18.8555 80.0254 18.8164C80.0905 18.7773 80.1589 18.7578 80.2305 18.7578C80.3411 18.7578 80.429 18.7969 80.4941 18.875C80.5592 18.9531 80.5918 19.0378 80.5918 19.1289C80.5918 19.181 80.582 19.2298 80.5625 19.2754C80.3932 19.653 80.1914 20.0339 79.957 20.418C79.7227 20.7956 79.4492 21.1374 79.1367 21.4434C78.8242 21.7493 78.4727 21.9967 78.082 22.1855C77.6914 22.3809 77.2585 22.4785 76.7832 22.4785C76.4382 22.4785 76.1029 22.4232 75.7773 22.3125C75.4518 22.2083 75.1654 22.0423 74.918 21.8145C74.8268 21.7428 74.7487 21.668 74.6836 21.5898C74.6185 21.5052 74.5664 21.4271 74.5273 21.3555C74.5143 21.3424 74.5078 21.3294 74.5078 21.3164C74.4688 21.2578 74.4492 21.196 74.4492 21.1309C74.4492 21.0462 74.4785 20.9681 74.5371 20.8965C74.5436 20.8835 74.5501 20.877 74.5566 20.877C74.5632 20.8704 74.5697 20.8639 74.5762 20.8574C74.6413 20.7988 74.7129 20.7663 74.791 20.7598H74.8203C74.8529 20.7598 74.8757 20.763 74.8887 20.7695C74.8952 20.7695 74.8984 20.7728 74.8984 20.7793C74.9049 20.7793 74.9115 20.7793 74.918 20.7793C74.9375 20.7793 74.9603 20.7858 74.9863 20.7988C74.9928 20.8053 74.9993 20.8086 75.0059 20.8086C75.0645 20.8477 75.1133 20.8965 75.1523 20.9551C75.1979 21.0332 75.25 21.1048 75.3086 21.1699C75.3607 21.222 75.4225 21.2708 75.4941 21.3164C75.5658 21.3555 75.6471 21.375 75.7383 21.375C75.901 21.375 76.0638 21.3262 76.2266 21.2285C76.3893 21.1309 76.5358 20.9909 76.666 20.8086C76.7962 20.6263 76.9004 20.4049 76.9785 20.1445C77.0632 19.8841 77.1055 19.5944 77.1055 19.2754C77.1055 19.041 77.0794 18.8424 77.0273 18.6797C76.9818 18.5104 76.9199 18.3737 76.8418 18.2695C76.7702 18.1654 76.6921 18.0905 76.6074 18.0449C76.5228 17.9928 76.4414 17.9668 76.3633 17.9668C76.1875 17.9668 76.0085 18.0579 75.8262 18.2402C75.6504 18.4225 75.4746 18.6536 75.2988 18.9336C75.123 19.2135 74.9473 19.5228 74.7715 19.8613C74.6022 20.1999 74.4297 20.5286 74.2539 20.8477C74.2409 21.9023 74.2214 22.9082 74.1953 23.8652C74.1758 24.8223 74.1367 25.7109 74.0781 26.5312C74.026 27.3516 73.9512 28.0938 73.8535 28.7578C73.7559 29.4219 73.6224 29.9883 73.4531 30.457C73.2839 30.9323 73.0755 31.2969 72.8281 31.5508C72.5807 31.8047 72.278 31.9316 71.9199 31.9316C71.8092 31.9316 71.6823 31.9089 71.5391 31.8633C71.3958 31.8177 71.2624 31.7233 71.1387 31.5801C71.015 31.4434 70.9108 31.2448 70.8262 30.9844C70.7415 30.724 70.6992 30.3757 70.6992 29.9395C70.6992 29.3861 70.7676 28.7448 70.9043 28.0156C71.041 27.2865 71.2363 26.5117 71.4902 25.6914C71.7376 24.8776 72.0339 24.041 72.3789 23.1816C72.724 22.3223 73.1048 21.4857 73.5215 20.6719C73.5215 20.444 73.5215 20.2194 73.5215 19.998C73.528 19.7767 73.5312 19.5618 73.5312 19.3535C73.4466 19.4512 73.3457 19.5 73.2285 19.5C73.1178 19.5 73.0299 19.4609 72.9648 19.3828C72.8997 19.3047 72.8672 19.2201 72.8672 19.1289C72.8672 19.0833 72.877 19.0345 72.8965 18.9824C73.0527 18.6243 73.1732 18.2858 73.2578 17.9668C73.3424 17.6413 73.4043 17.3581 73.4434 17.1172C73.4889 16.8698 73.515 16.6745 73.5215 16.5312C73.528 16.388 73.5312 16.3132 73.5312 16.3066C73.5312 16.209 73.5671 16.1243 73.6387 16.0527C73.7103 15.9811 73.7982 15.9453 73.9023 15.9453C74 15.9453 74.0846 15.9811 74.1562 16.0527C74.2279 16.1178 74.2637 16.2025 74.2637 16.3066V19.3047C74.4134 19.0508 74.5632 18.8001 74.7129 18.5527C74.8626 18.3053 75.0189 18.084 75.1816 17.8887C75.3509 17.6934 75.5299 17.5371 75.7188 17.4199C75.9141 17.2962 76.1289 17.2344 76.3633 17.2344C76.5846 17.2344 76.7865 17.2865 76.9688 17.3906C77.151 17.4948 77.3073 17.638 77.4375 17.8203C77.5677 18.0026 77.6654 18.2207 77.7305 18.4746C77.8021 18.722 77.8379 18.9889 77.8379 19.2754ZM73.502 22.4102C73.1829 23.1263 72.8932 23.8457 72.6328 24.5684C72.3789 25.291 72.1641 25.9876 71.9883 26.6582C71.806 27.3288 71.666 27.957 71.5684 28.543C71.4707 29.1289 71.4219 29.6432 71.4219 30.0859C71.4219 30.1966 71.4284 30.3171 71.4414 30.4473C71.4544 30.5775 71.4805 30.6979 71.5195 30.8086C71.5586 30.9193 71.6139 31.0104 71.6855 31.082C71.7572 31.1602 71.8516 31.1992 71.9688 31.1992C72.1836 31.1992 72.3691 31.0625 72.5254 30.7891C72.6816 30.5221 72.8118 30.1576 72.916 29.6953C73.0267 29.2396 73.1178 28.7122 73.1895 28.1133C73.2611 27.5208 73.3164 26.8991 73.3555 26.248C73.401 25.597 73.4336 24.9395 73.4531 24.2754C73.4727 23.6178 73.4889 22.9961 73.502 22.4102ZM97.2422 11.7461C97.2227 11.8372 97.1803 11.9089 97.1152 11.9609C97.0501 12.013 96.9785 12.0391 96.9004 12.0391C96.7832 12.0391 96.6888 12.0033 96.6172 11.9316C96.5456 11.8535 96.5098 11.7656 96.5098 11.668C96.5098 11.5703 96.5195 11.4759 96.5391 11.3848C96.5586 11.2871 96.5684 11.1927 96.5684 11.1016C96.5684 10.6263 96.4219 10.1999 96.1289 9.82227C95.8359 9.44466 95.4193 9.12891 94.8789 8.875C94.3451 8.61458 93.694 8.41602 92.9258 8.2793C92.1576 8.14258 91.3014 8.07422 90.3574 8.07422C89.6348 8.07422 88.9056 8.12305 88.1699 8.2207C87.4408 8.31185 86.7376 8.44857 86.0605 8.63086C85.39 8.80664 84.7617 9.03125 84.1758 9.30469C83.5898 9.57161 83.0788 9.88411 82.6426 10.2422C82.2129 10.5938 81.8743 10.9876 81.627 11.4238C81.3796 11.8535 81.2559 12.3255 81.2559 12.8398C81.2559 13.237 81.3405 13.5885 81.5098 13.8945C81.6855 14.194 81.9232 14.4577 82.2227 14.6855C82.5221 14.9069 82.8737 15.099 83.2773 15.2617C83.6875 15.418 84.1302 15.5514 84.6055 15.6621C85.0807 15.7663 85.5755 15.8542 86.0898 15.9258C86.6042 15.9909 87.1217 16.0462 87.6426 16.0918L89.1465 16.2188C89.8952 16.2839 90.5658 16.3522 91.1582 16.4238C91.7507 16.4954 92.2715 16.5866 92.7207 16.6973C93.4694 16.8861 94.0228 17.1562 94.3809 17.5078C94.7389 17.8594 94.918 18.3281 94.918 18.9141C94.918 19.4805 94.7617 19.9785 94.4492 20.4082C94.1367 20.8379 93.7103 21.1992 93.1699 21.4922C92.6296 21.7852 91.998 22.0065 91.2754 22.1562C90.5527 22.306 89.778 22.3809 88.9512 22.3809C88.0527 22.3809 87.2617 22.319 86.5781 22.1953C85.901 22.0781 85.3314 21.9479 84.8691 21.8047C84.4134 21.6549 84.0651 21.5182 83.8242 21.3945C83.5833 21.2708 83.4531 21.2025 83.4336 21.1895C83.3164 21.1243 83.2578 21.0202 83.2578 20.877C83.2578 20.7663 83.2969 20.6784 83.375 20.6133C83.4531 20.5417 83.5378 20.5059 83.6289 20.5059C83.7005 20.5059 83.7656 20.5254 83.8242 20.5645C83.8307 20.5645 83.9414 20.623 84.1562 20.7402C84.3776 20.8509 84.7031 20.9746 85.1328 21.1113C85.569 21.248 86.1061 21.3717 86.7441 21.4824C87.3822 21.5931 88.1243 21.6484 88.9707 21.6484C89.8105 21.6484 90.5527 21.5801 91.1973 21.4434C91.8418 21.3066 92.3822 21.1178 92.8184 20.877C93.2611 20.6296 93.5931 20.3431 93.8145 20.0176C94.0423 19.6855 94.1562 19.3275 94.1562 18.9434C94.1562 18.7155 94.1139 18.5202 94.0293 18.3574C93.9512 18.1882 93.8405 18.0449 93.6973 17.9277C93.554 17.804 93.3815 17.6999 93.1797 17.6152C92.9844 17.5306 92.7695 17.459 92.5352 17.4004C92.2878 17.3353 92.0208 17.2799 91.7344 17.2344C91.4544 17.1888 91.1647 17.1497 90.8652 17.1172C90.5658 17.0846 90.263 17.0553 89.957 17.0293C89.6576 17.0033 89.3613 16.9772 89.0684 16.9512L87.5645 16.8242C86.3796 16.7266 85.3444 16.5768 84.459 16.375C83.5801 16.1667 82.8477 15.903 82.2617 15.584C81.6758 15.2585 81.2363 14.8711 80.9434 14.4219C80.6504 13.9727 80.5039 13.4486 80.5039 12.8496C80.5039 12.2376 80.6406 11.6777 80.9141 11.1699C81.194 10.6556 81.5716 10.1934 82.0469 9.7832C82.5286 9.37305 83.0885 9.01823 83.7266 8.71875C84.3711 8.41276 85.0579 8.15885 85.7871 7.95703C86.5163 7.75521 87.2715 7.60547 88.0527 7.50781C88.834 7.40365 89.6022 7.35156 90.3574 7.35156C91.3014 7.35156 92.1217 7.41016 92.8184 7.52734C93.5215 7.63802 94.1204 7.78451 94.6152 7.9668C95.1165 8.14258 95.5267 8.3444 95.8457 8.57227C96.1647 8.80013 96.4219 9.02474 96.6172 9.24609C97.0794 9.78646 97.3105 10.4017 97.3105 11.0918C97.3105 11.3197 97.2878 11.5378 97.2422 11.7461ZM105.699 12.2246C105.699 12.3288 105.663 12.4134 105.592 12.4785C105.52 12.5371 105.432 12.5664 105.328 12.5664H100.377V12.6738C100.377 13.071 100.348 13.4941 100.289 13.9434C100.23 14.3926 100.149 14.8418 100.045 15.291C99.9473 15.7337 99.8333 16.1667 99.7031 16.5898C99.5794 17.013 99.4492 17.4036 99.3125 17.7617C99.1823 18.1198 99.0521 18.4323 98.9219 18.6992C98.7917 18.9596 98.6745 19.1549 98.5703 19.2852C98.6549 19.5846 98.7559 19.8646 98.873 20.125C98.9902 20.3789 99.1204 20.6035 99.2637 20.7988C99.4134 20.9876 99.5729 21.1374 99.7422 21.248C99.9115 21.3587 100.094 21.4141 100.289 21.4141C100.517 21.4141 100.742 21.3197 100.963 21.1309C101.191 20.9355 101.399 20.7077 101.588 20.4473C101.783 20.1803 101.952 19.9134 102.096 19.6465C102.245 19.373 102.353 19.1549 102.418 18.9922C102.483 18.8359 102.597 18.7578 102.76 18.7578C102.87 18.7578 102.958 18.7969 103.023 18.875C103.095 18.9531 103.131 19.0378 103.131 19.1289C103.131 19.1745 103.121 19.2201 103.102 19.2656C103.082 19.3112 103.033 19.4154 102.955 19.5781C102.883 19.7409 102.786 19.9297 102.662 20.1445C102.545 20.3594 102.405 20.5872 102.242 20.8281C102.086 21.0625 101.907 21.2773 101.705 21.4727C101.51 21.668 101.298 21.8307 101.07 21.9609C100.842 22.0911 100.602 22.1562 100.348 22.1562C99.8984 22.1562 99.4948 22.0098 99.1367 21.7168C98.7786 21.4238 98.4727 21.0137 98.2188 20.4863C97.9714 19.959 97.7826 19.334 97.6523 18.6113C97.5221 17.8887 97.457 17.0977 97.457 16.2383C97.457 16.0234 97.4603 15.7728 97.4668 15.4863C97.4733 15.1934 97.4863 14.8874 97.5059 14.5684C97.5254 14.2428 97.5547 13.9108 97.5938 13.5723C97.6328 13.2272 97.6849 12.8919 97.75 12.5664H94.2441C94.14 12.5664 94.0521 12.5371 93.9805 12.4785C93.9089 12.4134 93.873 12.3288 93.873 12.2246C93.873 12.1204 93.9089 12.0391 93.9805 11.9805C94.0521 11.9154 94.14 11.8828 94.2441 11.8828H97.916C97.9811 11.6484 98.056 11.4336 98.1406 11.2383C98.2318 11.043 98.3327 10.8737 98.4434 10.7305C98.5605 10.5872 98.6875 10.4766 98.8242 10.3984C98.9674 10.3138 99.1237 10.2715 99.293 10.2715C99.4557 10.2715 99.5957 10.3138 99.7129 10.3984C99.8366 10.4766 99.9408 10.5872 100.025 10.7305C100.11 10.8737 100.175 11.043 100.221 11.2383C100.273 11.4336 100.312 11.6484 100.338 11.8828H105.328C105.432 11.8828 105.52 11.9154 105.592 11.9805C105.663 12.0391 105.699 12.1204 105.699 12.2246ZM98.3457 18.3086C98.541 17.8789 98.7168 17.4167 98.873 16.9219C99.0358 16.4206 99.1725 15.916 99.2832 15.4082C99.4004 14.9004 99.4883 14.4023 99.5469 13.9141C99.612 13.4258 99.6445 12.9766 99.6445 12.5664H98.4922C98.401 12.9701 98.3262 13.4714 98.2676 14.0703C98.2155 14.6628 98.1895 15.3854 98.1895 16.2383C98.1895 16.7135 98.2025 17.1139 98.2285 17.4395C98.2546 17.7585 98.2936 18.0482 98.3457 18.3086ZM99.2539 11.0039C99.1953 11.0039 99.1107 11.069 99 11.1992C98.8893 11.3229 98.7786 11.5508 98.668 11.8828H99.6055C99.5729 11.6094 99.5241 11.3945 99.459 11.2383C99.4004 11.082 99.332 11.0039 99.2539 11.0039ZM98.502 19.0117V19.0215V19.0117ZM105.699 20.9062C105.471 21.2773 105.204 21.5703 104.898 21.7852C104.599 22 104.296 22.1074 103.99 22.1074C103.743 22.1074 103.521 22.0618 103.326 21.9707C103.131 21.8796 102.962 21.7526 102.818 21.5898C102.675 21.4206 102.564 21.2188 102.486 20.9844C102.415 20.75 102.379 20.4863 102.379 20.1934C102.379 19.7376 102.421 19.334 102.506 18.9824C102.597 18.6309 102.695 18.3379 102.799 18.1035C102.903 17.8626 103.001 17.6803 103.092 17.5566C103.183 17.4329 103.229 17.3711 103.229 17.3711C103.261 17.332 103.3 17.3027 103.346 17.2832C103.398 17.2637 103.45 17.2539 103.502 17.2539C103.606 17.2539 103.691 17.293 103.756 17.3711C103.827 17.4427 103.863 17.5273 103.863 17.625C103.863 17.6641 103.854 17.7031 103.834 17.7422C103.821 17.7812 103.805 17.8203 103.785 17.8594C103.753 17.918 103.701 18.0091 103.629 18.1328C103.557 18.25 103.482 18.4062 103.404 18.6016C103.326 18.7969 103.258 19.028 103.199 19.2949C103.141 19.5553 103.111 19.8548 103.111 20.1934C103.111 20.5775 103.186 20.8704 103.336 21.0723C103.492 21.2676 103.71 21.3652 103.99 21.3652C104.107 21.3652 104.241 21.3294 104.391 21.2578C104.547 21.1797 104.697 21.0625 104.84 20.9062C104.99 20.75 105.12 20.5514 105.23 20.3105C105.341 20.0697 105.413 19.7865 105.445 19.4609L105.592 17.7812C105.605 17.6836 105.647 17.6022 105.719 17.5371C105.79 17.472 105.875 17.4395 105.973 17.4395C106.083 17.4395 106.171 17.4818 106.236 17.5664C106.301 17.6445 106.334 17.7357 106.334 17.8398L106.207 19.4609C106.194 19.5977 106.197 19.7767 106.217 19.998C106.243 20.2194 106.292 20.4375 106.363 20.6523C106.435 20.8672 106.542 21.0527 106.686 21.209C106.829 21.3587 107.018 21.4336 107.252 21.4336C107.421 21.4336 107.587 21.3913 107.75 21.3066C107.913 21.2155 108.069 21.0983 108.219 20.9551C108.368 20.8118 108.505 20.6523 108.629 20.4766C108.759 20.2943 108.876 20.112 108.98 19.9297C109.091 19.7474 109.186 19.5749 109.264 19.4121C109.342 19.2428 109.407 19.0996 109.459 18.9824C109.492 18.9108 109.537 18.8555 109.596 18.8164C109.654 18.7773 109.719 18.7578 109.791 18.7578C109.908 18.7578 109.999 18.7969 110.064 18.875C110.13 18.9531 110.162 19.0378 110.162 19.1289C110.162 19.181 110.152 19.2298 110.133 19.2754C110.107 19.3275 110.055 19.4382 109.977 19.6074C109.905 19.7702 109.807 19.959 109.684 20.1738C109.566 20.3822 109.423 20.6035 109.254 20.8379C109.085 21.0723 108.896 21.2904 108.688 21.4922C108.479 21.6875 108.251 21.8503 108.004 21.9805C107.763 22.1042 107.503 22.166 107.223 22.166C106.839 22.166 106.52 22.0586 106.266 21.8438C106.012 21.6224 105.823 21.3099 105.699 20.9062ZM110.23 22.4785C110.712 22.2637 111.148 22.0163 111.539 21.7363C111.936 21.4564 112.288 21.1634 112.594 20.8574C112.906 20.5449 113.17 20.2292 113.385 19.9102C113.606 19.5846 113.782 19.2754 113.912 18.9824C113.971 18.8392 114.081 18.7676 114.244 18.7676C114.355 18.7676 114.443 18.8066 114.508 18.8848C114.579 18.9564 114.615 19.0378 114.615 19.1289C114.615 19.181 114.605 19.2298 114.586 19.2754C114.443 19.5944 114.26 19.9264 114.039 20.2715C113.818 20.61 113.548 20.9453 113.229 21.2773C112.916 21.6029 112.548 21.9186 112.125 22.2246C111.702 22.5306 111.217 22.8105 110.67 23.0645C111.021 23.429 111.327 23.8327 111.588 24.2754C111.848 24.7246 112.063 25.1901 112.232 25.6719C112.408 26.1536 112.538 26.6387 112.623 27.127C112.714 27.6217 112.76 28.0938 112.76 28.543C112.76 28.9531 112.721 29.3372 112.643 29.6953C112.571 30.0599 112.46 30.3757 112.311 30.6426C112.167 30.9095 111.992 31.1178 111.783 31.2676C111.575 31.4238 111.337 31.502 111.07 31.502C110.68 31.502 110.377 31.3555 110.162 31.0625C109.947 30.776 109.788 30.3757 109.684 29.8613C109.586 29.3535 109.527 28.7513 109.508 28.0547C109.495 27.3646 109.488 26.6126 109.488 25.7988C109.488 25.3952 109.488 24.9232 109.488 24.3828C109.488 23.849 109.488 23.2728 109.488 22.6543C109.495 22.0423 109.498 21.401 109.498 20.7305C109.505 20.0534 109.511 19.3763 109.518 18.6992C109.524 18.0221 109.531 17.3581 109.537 16.707C109.544 16.0495 109.553 15.4277 109.566 14.8418C109.586 13.722 109.625 12.7227 109.684 11.8438C109.742 10.9648 109.837 10.2227 109.967 9.61719C110.097 9.01172 110.273 8.55273 110.494 8.24023C110.722 7.92122 111.008 7.76172 111.354 7.76172C111.627 7.76172 111.858 7.83984 112.047 7.99609C112.236 8.14583 112.389 8.35091 112.506 8.61133C112.623 8.86523 112.708 9.16471 112.76 9.50977C112.812 9.85482 112.838 10.2161 112.838 10.5938C112.838 11.388 112.77 12.1562 112.633 12.8984C112.496 13.6406 112.311 14.36 112.076 15.0566C111.842 15.7533 111.565 16.4336 111.246 17.0977C110.934 17.7617 110.598 18.416 110.24 19.0605C110.24 19.3275 110.24 19.6172 110.24 19.9297C110.24 20.2357 110.24 20.5449 110.24 20.8574C110.24 21.1634 110.237 21.4596 110.23 21.7461C110.23 22.026 110.23 22.2702 110.23 22.4785ZM110.26 17.5566C110.527 17.0553 110.771 16.528 110.992 15.9746C111.22 15.4147 111.415 14.8385 111.578 14.2461C111.741 13.6536 111.868 13.0482 111.959 12.4297C112.05 11.8112 112.096 11.1895 112.096 10.5645C112.096 10.252 112.079 9.96875 112.047 9.71484C112.021 9.46094 111.975 9.24609 111.91 9.07031C111.852 8.88802 111.773 8.74805 111.676 8.65039C111.585 8.54622 111.477 8.49414 111.354 8.49414C111.223 8.49414 111.109 8.57227 111.012 8.72852C110.914 8.88477 110.829 9.0931 110.758 9.35352C110.686 9.61393 110.624 9.91341 110.572 10.252C110.527 10.5905 110.488 10.9453 110.455 11.3164C110.423 11.681 110.396 12.0488 110.377 12.4199C110.357 12.7845 110.341 13.1296 110.328 13.4551C110.322 13.7741 110.315 14.0573 110.309 14.3047C110.309 14.5521 110.309 14.7376 110.309 14.8613C110.302 15.1217 110.296 15.3529 110.289 15.5547C110.289 15.7565 110.286 15.9551 110.279 16.1504C110.273 16.3457 110.266 16.554 110.26 16.7754C110.26 16.9967 110.26 17.2572 110.26 17.5566ZM110.23 23.6797C110.23 24.0898 110.227 24.4707 110.221 24.8223C110.221 25.1803 110.221 25.5059 110.221 25.7988C110.221 26.4043 110.224 27.0033 110.23 27.5957C110.237 28.1882 110.266 28.7188 110.318 29.1875C110.377 29.6628 110.462 30.0436 110.572 30.3301C110.689 30.623 110.855 30.7695 111.07 30.7695C111.266 30.7695 111.425 30.6816 111.549 30.5059C111.673 30.3301 111.767 30.1217 111.832 29.8809C111.904 29.64 111.952 29.3926 111.979 29.1387C112.005 28.8913 112.018 28.6895 112.018 28.5332C112.018 28.1361 111.979 27.7194 111.9 27.2832C111.829 26.847 111.715 26.4141 111.559 25.9844C111.409 25.5612 111.223 25.151 111.002 24.7539C110.781 24.3568 110.523 23.9987 110.23 23.6797ZM114.684 22.4785C115.165 22.2637 115.602 22.0163 115.992 21.7363C116.389 21.4564 116.741 21.1634 117.047 20.8574C117.359 20.5449 117.623 20.2292 117.838 19.9102C118.059 19.5846 118.235 19.2754 118.365 18.9824C118.424 18.8392 118.535 18.7676 118.697 18.7676C118.808 18.7676 118.896 18.8066 118.961 18.8848C119.033 18.9564 119.068 19.0378 119.068 19.1289C119.068 19.181 119.059 19.2298 119.039 19.2754C118.896 19.5944 118.714 19.9264 118.492 20.2715C118.271 20.61 118.001 20.9453 117.682 21.2773C117.369 21.6029 117.001 21.9186 116.578 22.2246C116.155 22.5306 115.67 22.8105 115.123 23.0645C115.475 23.429 115.781 23.8327 116.041 24.2754C116.301 24.7246 116.516 25.1901 116.686 25.6719C116.861 26.1536 116.992 26.6387 117.076 27.127C117.167 27.6217 117.213 28.0938 117.213 28.543C117.213 28.9531 117.174 29.3372 117.096 29.6953C117.024 30.0599 116.913 30.3757 116.764 30.6426C116.62 30.9095 116.445 31.1178 116.236 31.2676C116.028 31.4238 115.79 31.502 115.523 31.502C115.133 31.502 114.83 31.3555 114.615 31.0625C114.4 30.776 114.241 30.3757 114.137 29.8613C114.039 29.3535 113.98 28.7513 113.961 28.0547C113.948 27.3646 113.941 26.6126 113.941 25.7988C113.941 25.3952 113.941 24.9232 113.941 24.3828C113.941 23.849 113.941 23.2728 113.941 22.6543C113.948 22.0423 113.951 21.401 113.951 20.7305C113.958 20.0534 113.964 19.3763 113.971 18.6992C113.977 18.0221 113.984 17.3581 113.99 16.707C113.997 16.0495 114.007 15.4277 114.02 14.8418C114.039 13.722 114.078 12.7227 114.137 11.8438C114.195 10.9648 114.29 10.2227 114.42 9.61719C114.55 9.01172 114.726 8.55273 114.947 8.24023C115.175 7.92122 115.462 7.76172 115.807 7.76172C116.08 7.76172 116.311 7.83984 116.5 7.99609C116.689 8.14583 116.842 8.35091 116.959 8.61133C117.076 8.86523 117.161 9.16471 117.213 9.50977C117.265 9.85482 117.291 10.2161 117.291 10.5938C117.291 11.388 117.223 12.1562 117.086 12.8984C116.949 13.6406 116.764 14.36 116.529 15.0566C116.295 15.7533 116.018 16.4336 115.699 17.0977C115.387 17.7617 115.051 18.416 114.693 19.0605C114.693 19.3275 114.693 19.6172 114.693 19.9297C114.693 20.2357 114.693 20.5449 114.693 20.8574C114.693 21.1634 114.69 21.4596 114.684 21.7461C114.684 22.026 114.684 22.2702 114.684 22.4785ZM114.713 17.5566C114.98 17.0553 115.224 16.528 115.445 15.9746C115.673 15.4147 115.868 14.8385 116.031 14.2461C116.194 13.6536 116.321 13.0482 116.412 12.4297C116.503 11.8112 116.549 11.1895 116.549 10.5645C116.549 10.252 116.533 9.96875 116.5 9.71484C116.474 9.46094 116.428 9.24609 116.363 9.07031C116.305 8.88802 116.227 8.74805 116.129 8.65039C116.038 8.54622 115.93 8.49414 115.807 8.49414C115.676 8.49414 115.562 8.57227 115.465 8.72852C115.367 8.88477 115.283 9.0931 115.211 9.35352C115.139 9.61393 115.077 9.91341 115.025 10.252C114.98 10.5905 114.941 10.9453 114.908 11.3164C114.876 11.681 114.85 12.0488 114.83 12.4199C114.811 12.7845 114.794 13.1296 114.781 13.4551C114.775 13.7741 114.768 14.0573 114.762 14.3047C114.762 14.5521 114.762 14.7376 114.762 14.8613C114.755 15.1217 114.749 15.3529 114.742 15.5547C114.742 15.7565 114.739 15.9551 114.732 16.1504C114.726 16.3457 114.719 16.554 114.713 16.7754C114.713 16.9967 114.713 17.2572 114.713 17.5566ZM114.684 23.6797C114.684 24.0898 114.68 24.4707 114.674 24.8223C114.674 25.1803 114.674 25.5059 114.674 25.7988C114.674 26.4043 114.677 27.0033 114.684 27.5957C114.69 28.1882 114.719 28.7188 114.771 29.1875C114.83 29.6628 114.915 30.0436 115.025 30.3301C115.143 30.623 115.309 30.7695 115.523 30.7695C115.719 30.7695 115.878 30.6816 116.002 30.5059C116.126 30.3301 116.22 30.1217 116.285 29.8809C116.357 29.64 116.406 29.3926 116.432 29.1387C116.458 28.8913 116.471 28.6895 116.471 28.5332C116.471 28.1361 116.432 27.7194 116.354 27.2832C116.282 26.847 116.168 26.4141 116.012 25.9844C115.862 25.5612 115.676 25.151 115.455 24.7539C115.234 24.3568 114.977 23.9987 114.684 23.6797Z" fill="#162945"/>
<path d="M0 0C8.85867 2.29669 18.1516 2.3371 27.0299 0.11752L27.5 0C30.467 1.31865 33.6776 2 36.9244 2H38V32L34.6254 31.3974C27.6169 30.1459 20.4258 30.351 13.5 32H0V0Z" fill="#F0F0F0"/>
<path fill-rule="evenodd" clip-rule="evenodd" d="M13.5 32C20.4258 30.351 27.6169 30.1459 34.6254 31.3974L38 32V2H36.9244C33.6776 2 30.467 1.31865 27.5 0L27.0299 0.11752C18.8174 2.17064 10.2502 2.29004 2 0.478642C1.33113 0.331785 0.664344 0.172237 0 0V32H13.5ZM2 30H13.2674C20.3893 28.3374 27.776 28.1426 34.977 29.4285L36 29.6112V3.98304C33.0229 3.87378 30.0879 3.23752 27.3319 2.10326C19.0176 4.15249 10.3578 4.29198 2 2.52455V30Z" fill="#162945"/>
<path fill-rule="evenodd" clip-rule="evenodd" d="M4.2528 12.7393C4.15868 12.215 4.07679 11.6766 4.00772 11.124L5.99228 10.876C6.05705 11.3942 6.13364 11.8974 6.22133 12.3859L4.2528 12.7393ZM6.22964 19.0022C5.77147 18.0568 5.36719 17.033 5.02482 15.9303L6.93487 15.3372C7.24899 16.3489 7.61704 17.279 8.02944 18.13L6.22964 19.0022ZM10.2199 24.3492C9.40599 23.6392 8.64269 22.8113 7.94607 21.8648L9.55679 20.6793C10.1698 21.5122 10.8346 22.2314 11.5346 22.842L10.2199 24.3492ZM27.2328 23.6805C26.838 24.1056 26.4204 24.4975 25.9832 24.8553L24.7165 23.3076C25.0828 23.0078 25.434 22.6784 25.7672 22.3195L27.2328 23.6805ZM16.2828 27.3496C15.1806 27.1419 14.0905 26.7766 13.0406 26.2507L13.9362 24.4625C14.8216 24.9059 15.735 25.2112 16.6531 25.3841L16.2828 27.3496ZM23.0464 26.6308C21.9801 27.0811 20.8595 27.3695 19.717 27.4904L19.5065 25.5015C20.4537 25.4013 21.383 25.1622 22.2683 24.7883L23.0464 26.6308Z" fill="#162945"/>
<path fill-rule="evenodd" clip-rule="evenodd" d="M30.7929 22.7071L26.7929 18.7071L28.2071 17.2929L32.2071 21.2929L30.7929 22.7071Z" fill="#BD0878"/>
<path fill-rule="evenodd" clip-rule="evenodd" d="M27.0128 21.3353L30.2228 17.3707L31.7772 18.6293L28.5671 22.5938L27.0128 21.3353Z" fill="#BD0878"/>
<path d="M19 5L23.3301 15.5H14.6699L19 5Z" fill="#057F9C"/>
<path d="M24 6L27.4641 15H20.5359L24 6Z" fill="#057F9C"/>
</svg>
